<?xml version="1.0" encoding="UTF-8" standalone="no"?>
<!DOCTYPE svg PUBLIC "-//W3C//DTD SVG 1.1//EN" "http://www.w3.org/Graphics/SVG/1.1/DTD/svg11.dtd">
<svg width="100%" height="100%" viewBox="0 0 1080 1080" version="1.1" xmlns="http://www.w3.org/2000/svg" xmlns:xlink="http://www.w3.org/1999/xlink" xml:space="preserve" xmlns:serif="http://www.serif.com/" style="fill-rule:evenodd;clip-rule:evenodd;stroke-linejoin:round;stroke-miterlimit:2;">
    <g transform="matrix(1.3178,0,0,1.3178,-1550.75,-162.689)">
        <path d="M1597.54,239.953L1597.54,241C1597.54,261.469 1600.98,275.542 1605.88,285.598C1622.26,278.687 1638.5,272.591 1652.48,269.579C1689.05,261.701 1716.58,261.904 1732.68,269.898C1747.95,277.484 1757.12,296.148 1750.25,313.062C1746.22,322.989 1736.31,333.12 1716.47,338.603C1692.11,345.335 1662.15,342.707 1638.29,335.515C1621.49,330.451 1607.72,323.012 1600.3,315.453C1599.43,314.572 1598.57,313.651 1597.7,312.684C1592.83,314.836 1587.99,317.007 1583.25,319.135C1592.7,340.773 1595.91,368.826 1597,384L1741.22,384C1746.43,384 1751.27,386.708 1754.01,391.167L1754.02,391.183C1772.11,420.867 1782.54,455.725 1782.54,493C1782.54,508.103 1780.83,522.809 1777.59,536.935C1813.15,579.862 1834.54,634.953 1834.54,695C1834.54,783.993 1787.56,862.101 1717.08,905.858C1679.15,929.401 1634.42,943 1586.54,943C1538.66,943 1493.93,929.401 1456,905.858C1385.52,862.101 1338.54,783.993 1338.54,695C1338.54,634.953 1359.93,579.862 1395.49,536.935C1392.25,522.809 1390.54,508.103 1390.54,493C1390.54,478.509 1392.12,464.384 1395.11,450.786C1399.81,429.406 1408,409.328 1419.07,391.171L1419.08,391.157C1421.81,386.711 1426.65,384.002 1431.86,384.002C1444.44,384.001 1508.38,384 1575.09,384C1574.19,370.189 1571.46,346.202 1563.22,328.018C1551.36,333.138 1540.85,337.272 1532.84,339.17C1494.02,348.369 1455.09,345.958 1434.03,326.257C1425.62,318.381 1422.04,310.065 1421.62,302.43C1421.17,294.132 1424.35,286.182 1430.95,279.52C1440.99,269.378 1460.29,262.02 1484.29,263.132C1506.2,264.147 1548.72,272.992 1571.92,300.564C1576.39,298.568 1580.97,296.508 1585.61,294.437C1579.74,282.029 1575.54,265.075 1575.54,241L1575.54,239.953C1550.79,235.126 1528.54,213.163 1528.57,183.023C1528.56,180.619 1529.51,178.31 1531.22,176.614C1532.92,174.917 1535.23,173.974 1537.64,173.995C1545.55,174.02 1552.21,175.674 1556.68,177.239C1557.78,159.112 1565.17,140.601 1580.34,125.95C1583.8,122.623 1589.28,122.623 1592.74,125.95C1607.91,140.601 1615.3,159.112 1616.4,177.239C1620.86,175.676 1627.51,174.025 1635.41,173.994C1637.82,173.972 1640.14,174.918 1641.86,176.621C1643.57,178.324 1644.52,180.643 1644.51,183.057C1644.52,213.179 1622.28,235.128 1597.54,239.953ZM1533.84,914.812C1550.75,918.858 1568.4,921 1586.54,921C1604.68,921 1622.33,918.858 1639.24,914.812C1616.53,907.27 1597.7,891.204 1586.54,870.416C1575.38,891.204 1556.55,907.27 1533.84,914.812ZM1575.54,469.264C1513.93,472.222 1458.75,499.903 1419.72,542.592C1440.09,611.126 1501.59,662.035 1575.54,666.657L1575.54,469.264ZM1758.92,516.778C1759.99,509.003 1760.54,501.065 1760.54,493C1760.54,461.293 1752.04,431.556 1737.24,406L1597.54,406L1597.54,447.24C1660.14,449.978 1716.74,475.968 1758.92,516.778ZM1550.63,309.806C1531.3,291.1 1499.76,285.872 1483.27,285.108C1469.79,284.484 1458.26,287.039 1450.6,291.848C1446.9,294.172 1444.08,296.819 1443.63,300.159C1443.18,303.461 1445.33,306.696 1449.07,310.194C1455.18,315.914 1463.48,319.262 1472.93,321.022C1489.11,324.034 1508.48,322.333 1527.76,317.763C1534.04,316.276 1541.85,313.425 1550.63,309.806ZM1597.54,666.657C1671.49,662.035 1732.99,611.126 1753.36,542.592C1714.33,499.903 1659.15,472.222 1597.54,469.264L1597.54,666.657ZM1705.58,887.105C1769.77,847.22 1812.54,776.066 1812.54,695C1812.54,645.621 1796.67,599.92 1769.76,562.724C1742.87,633.261 1676.39,684.325 1597.54,688.696L1597.54,826.53C1597.54,865.716 1629.35,897.53 1668.54,897.53C1682.11,897.53 1694.79,893.719 1705.58,887.105ZM1575.54,406C1514.01,406 1454.74,406.001 1435.85,406.001C1427.05,421.202 1420.48,437.856 1416.59,455.511C1413.94,467.587 1412.54,480.131 1412.54,493C1412.54,501.065 1413.09,509.003 1414.15,516.778C1456.34,475.968 1512.94,449.978 1575.54,447.24L1575.54,406ZM1403.32,562.724C1376.41,599.92 1360.54,645.621 1360.54,695C1360.54,776.066 1403.31,847.22 1467.51,887.105C1478.29,893.719 1490.97,897.53 1504.54,897.53C1543.73,897.53 1575.54,865.716 1575.54,826.53L1575.54,688.696C1496.69,684.325 1430.21,633.261 1403.32,562.724ZM1619.83,303.289C1625.77,307.598 1634.57,311.415 1644.64,314.451C1664.78,320.522 1690.05,323.08 1710.61,317.397C1721.39,314.417 1727.68,310.177 1729.87,304.78C1732.33,298.717 1728.37,292.321 1722.89,289.602C1709.69,283.043 1687.11,284.623 1657.11,291.086C1645.79,293.524 1632.99,297.998 1619.83,303.289Z" style="fill:rgb(106,93,77);"/>
    </g>
</svg>
